<svg version="1.2" xmlns="http://www.w3.org/2000/svg" viewBox="0 0 879 872" width="879" height="872">
	<title>logo-svg</title>
	<style>
		.s0 { fill: #4338ca } 
	</style>
	<g id="Layer 1">
		<g id="&lt;Group&gt;">
			<path id="&lt;Compound Path&gt;" class="s0" d="m346.2 354.6v-77.9l14.5 7.9 13.7 7.7 48.3 26.9v467.6 63.1q-39.3-1.8-76.5-10.7v-19.1c8.2-1.8 14.5-9.1 14.5-17.8v-24.4-405.3c0-8.8-6.3-16.1-14.5-18zm211.7 206.1l-36.5-20.9v238.1 35.9 28.6c-19.8 3.9-40.2 6.4-61 7.3l-1.1-0.6v-62.3-470l52.1-28.9 10-5.6v70 141.1l36.5-20.9v-140.6-69.9l62.2-34.5v69.8 139.6 46l-59 33.8 59 33.6v46 141.6c101.8-61 169.9-172.3 169.9-299.7 0-186.6-146.4-338.9-330.7-348.5-6-0.4-12.2-0.5-18.3-0.5-6.1 0-12.2 0.1-18.3 0.5-184.3 9.4-330.7 161.9-330.7 348.5 0 127.2 68.1 238.6 169.9 299.7v-438.2-69.9l62.2 34.5 14.4 8v82.3c-8.3 1.9-14.4 9.2-14.4 18v394.6 35.1c0 8.7 6.1 16 14.4 17.8v17.2q-40.1-10.2-76.6-28c-137.8-66.6-232.9-207.7-232.9-371.1 0-221.4 174.7-402 393.7-411.6q9.1-0.3 18.3-0.3c6.1 0 12.3 0.1 18.3 0.3 219.1 9.6 393.7 190.2 393.7 411.6 0 163.4-95.1 304.5-232.9 371.1-19.9 9.7-40.7 17.8-62.2 24.1v-66.2z"/>
		</g>
	</g>
</svg>